<svg xmlns="http://www.w3.org/2000/svg" width="1200" height="300" viewBox="0 0 1200 300">
<defs><filter id="glow"><feGaussianBlur stdDeviation="3" result="b"/><feMerge><feMergeNode in="b"/><feMergeNode in="SourceGraphic"/></feMerge></filter></defs>
<rect width="1200" height="300" rx="18" fill="#070708" stroke="#560010" stroke-width="2"/>
<text x="44" y="38" font-family="monospace" font-size="19" fill="#ff334f">REDLINE COMMAND CENTER // LIVE SYSTEM MAP</text>
<g font-family="monospace" font-size="15">
<g transform="translate(65 75)"><rect width="220" height="145" rx="12" fill="#0d0d0f" stroke="#630013"/><text x="18" y="30" fill="#ff7184">FRONTEND</text><text x="18" y="62" fill="#b84c5e">UI / STATE / RENDER</text><rect x="18" y="88" width="180" height="12" rx="6" fill="#260007"/><rect x="18" y="88" height="12" rx="6" fill="#ff314f"><animate attributeName="width" values="0;180;155;180" dur="2.5s" repeatCount="indefinite"/></rect><text x="18" y="125" fill="#ff7184">NODE ONLINE</text></g>
<g transform="translate(335 75)"><rect width="220" height="145" rx="12" fill="#0d0d0f" stroke="#630013"/><text x="18" y="30" fill="#ff7184">BACKEND</text><text x="18" y="62" fill="#b84c5e">API / AUTH / LOGIC</text><rect x="18" y="88" width="180" height="12" rx="6" fill="#260007"/><rect x="18" y="88" height="12" rx="6" fill="#d80028"><animate attributeName="width" values="0;0;170;145;170" keyTimes="0;.15;.72;.88;1" dur="3s" repeatCount="indefinite"/></rect><text x="18" y="125" fill="#ff7184">NODE ONLINE</text></g>
<g transform="translate(605 75)"><rect width="220" height="145" rx="12" fill="#0d0d0f" stroke="#630013"/><text x="18" y="30" fill="#ff7184">DATA</text><text x="18" y="62" fill="#b84c5e">SQL / CACHE / STORE</text><rect x="18" y="88" width="180" height="12" rx="6" fill="#260007"/><rect x="18" y="88" height="12" rx="6" fill="#b00020"><animate attributeName="width" values="0;150;180;150" dur="3.3s" repeatCount="indefinite"/></rect><text x="18" y="125" fill="#ff7184">NODE ONLINE</text></g>
<g transform="translate(875 75)"><rect width="220" height="145" rx="12" fill="#0d0d0f" stroke="#630013"/><text x="18" y="30" fill="#ff7184">DEVOPS</text><text x="18" y="62" fill="#b84c5e">BUILD / SHIP / WATCH</text><rect x="18" y="88" width="180" height="12" rx="6" fill="#260007"/><rect x="18" y="88" height="12" rx="6" fill="#8b0018"><animate attributeName="width" values="0;0;180;160;180" keyTimes="0;.2;.78;.9;1" dur="3.7s" repeatCount="indefinite"/></rect><text x="18" y="125" fill="#ff7184">NODE ONLINE</text></g>
</g>
<g fill="#fff" stroke="#ff314f" stroke-width="3" filter="url(#glow)"><circle r="6"><animateMotion path="M285 148 H335" dur="1.3s" repeatCount="indefinite"/></circle><circle r="6"><animateMotion path="M555 148 H605" dur="1.6s" repeatCount="indefinite"/></circle><circle r="6"><animateMotion path="M825 148 H875" dur="1.9s" repeatCount="indefinite"/></circle></g>
<text x="600" y="272" text-anchor="middle" font-family="monospace" font-size="15" fill="#963f50">PACKETS MOVING // SYSTEM HEALTH NOMINAL</text>
</svg>