<svg xmlns="http://www.w3.org/2000/svg" width="1200" height="330" viewBox="0 0 1200 330">
<rect width="1200" height="330" rx="18" fill="#070708" stroke="#50000f"/>
<text x="42" y="38" font-family="monospace" font-size="18" fill="#ff334f">DEVOPS LANE // DELIVERY TO PRODUCTION</text>
<g font-family="monospace" font-size="14">
  <rect x="58" y="112" width="130" height="76" rx="12" fill="#12090b" stroke="#620014"/><text x="89" y="140" font-size="18" fill="#ff7184">COMMIT</text><text x="89" y="165" fill="#ffbac3">source changes</text>
  <rect x="222" y="112" width="130" height="76" rx="12" fill="#12090b" stroke="#620014"/><text x="257" y="140" font-size="18" fill="#ff7184">CI</text><text x="257" y="165" fill="#ffbac3">lint / test</text>
  <rect x="386" y="112" width="130" height="76" rx="12" fill="#12090b" stroke="#620014"/><text x="415" y="140" font-size="18" fill="#ff7184">BUILD</text><text x="415" y="165" fill="#ffbac3">artifacts</text>
  <rect x="550" y="112" width="130" height="76" rx="12" fill="#12090b" stroke="#620014"/><text x="578" y="140" font-size="18" fill="#ff7184">IMAGE</text><text x="578" y="165" fill="#ffbac3">Docker</text>
  <rect x="714" y="112" width="130" height="76" rx="12" fill="#12090b" stroke="#620014"/><text x="739" y="140" font-size="18" fill="#ff7184">DEPLOY</text><text x="739" y="165" fill="#ffbac3">server / cloud</text>
  <rect x="878" y="112" width="130" height="76" rx="12" fill="#12090b" stroke="#620014"/><text x="905" y="140" font-size="18" fill="#ff7184">ROUTE</text><text x="905" y="165" fill="#ffbac3">NGINX / TLS</text>
  <rect x="1042" y="112" width="108" height="76" rx="12" fill="#12090b" stroke="#620014"/><text x="1060" y="140" font-size="18" fill="#ff7184">OBSERVE</text><text x="1060" y="165" fill="#ffbac3">logs / metrics</text>
</g>
<g fill="none" stroke="#ff314f" stroke-width="3"><path d="M188 150H222M352 150H386M516 150H550M680 150H714M844 150H878M1008 150H1042"/></g>
<g fill="#ffffff" stroke="#ff314f" stroke-width="3"><circle r="6"><animateMotion path="M188 150H1150" dur="7s" repeatCount="indefinite"/></circle></g>
<text x="62" y="254" font-family="monospace" font-size="14" fill="#ff7c8d">Delivery stack examples: GitHub Actions / Jenkins for CI, Docker for repeatable runtime, Linux servers, NGINX ingress, Prometheus/Grafana for visibility.</text>
</svg>