<svg xmlns="http://www.w3.org/2000/svg" width="305" height="300" viewBox="0 0 305 300">
<rect width="305" height="300" rx="18" fill="#06070b" stroke="#415171"/>
<text x="42" y="38" font-family="monospace" font-size="18" fill="#ff3150">FRONTEND SPECTRUM // INPUT TO VISUAL RESPONSE</text>
<rect x="48" y="110" width="138" height="74" rx="12" fill="#131118" stroke="#ff3150"/><text x="66" y="138" font-family="monospace" font-size="18" fill="#ff92a6">INPUT</text><text x="66" y="162" font-family="monospace" font-size="13" fill="#ffe7ec">clicks, forms</text><text x="66" y="180" font-family="monospace" font-size="13" fill="#ffe7ec">navigation</text><rect x="232" y="110" width="138" height="74" rx="12" fill="#101723" stroke="#46b6ff"/><text x="250" y="138" font-family="monospace" font-size="18" fill="#98dcff">STATE</text><text x="250" y="162" font-family="monospace" font-size="13" fill="#e7f7ff">local/global</text><text x="250" y="180" font-family="monospace" font-size="13" fill="#e7f7ff">reactivity</text><rect x="416" y="110" width="138" height="74" rx="12" fill="#131118" stroke="#ff3150"/><text x="434" y="138" font-family="monospace" font-size="18" fill="#ff92a6">COMPONENTS</text><text x="434" y="162" font-family="monospace" font-size="13" fill="#ffe7ec">React/Vue</text><text x="434" y="180" font-family="monospace" font-size="13" fill="#ffe7ec">Angular/Svelte</text><rect x="600" y="110" width="138" height="74" rx="12" fill="#101723" stroke="#46b6ff"/><text x="618" y="138" font-family="monospace" font-size="18" fill="#98dcff">STYLES</text><text x="618" y="162" font-family="monospace" font-size="13" fill="#e7f7ff">CSS/Sass</text><text x="618" y="180" font-family="monospace" font-size="13" fill="#e7f7ff">Tailwind/UI libs</text><rect x="784" y="110" width="138" height="74" rx="12" fill="#131118" stroke="#ff3150"/><text x="802" y="138" font-family="monospace" font-size="18" fill="#ff92a6">API</text><text x="802" y="162" font-family="monospace" font-size="13" fill="#ffe7ec">fetch/axios</text><text x="802" y="180" font-family="monospace" font-size="13" fill="#ffe7ec">GraphQL</text><rect x="968" y="110" width="138" height="74" rx="12" fill="#101723" stroke="#46b6ff"/><text x="986" y="138" font-family="monospace" font-size="18" fill="#98dcff">RENDER</text><text x="986" y="162" font-family="monospace" font-size="13" fill="#e7f7ff">DOM / paint</text><text x="986" y="180" font-family="monospace" font-size="13" fill="#e7f7ff">updated UI</text><path d="M186 146H232" fill="none" stroke="#ff3150" stroke-width="3"/><path d="M370 146H416" fill="none" stroke="#46b6ff" stroke-width="3"/><path d="M554 146H600" fill="none" stroke="#ff3150" stroke-width="3"/><path d="M738 146H784" fill="none" stroke="#46b6ff" stroke-width="3"/><path d="M922 146H968" fill="none" stroke="#ff3150" stroke-width="3"/><g fill="#fff"><circle r="6" stroke="#46b6ff" stroke-width="3"><animateMotion path="M186 146H1106" dur="6s" repeatCount="indefinite"/></circle></g><text x="58" y="250" font-family="monospace" font-size="14" fill="#caecff">Purpose: transform user actions and data into a responsive, readable, interactive interface.</text></svg>